<mxfile host="app.diagrams.net" modified="2020-04-16T18:31:33.347Z" agent="5.0 (Windows NT 10.0; Win64; x64) AppleWebKit/537.36 (KHTML, like Gecko) Chrome/80.0.3987.163 Safari/537.36" etag="UD4pjOoyvPZFbO9TaK5i" version="12.9.12" type="github">
  <diagram id="j1norhdIm9kePcJpWqvb" name="Page-1">
    <mxGraphModel dx="2248" dy="2265" grid="1" gridSize="10" guides="1" tooltips="1" connect="1" arrows="1" fold="1" page="1" pageScale="1" pageWidth="827" pageHeight="1169" math="0" shadow="0">
      <root>
        <mxCell id="0" />
        <mxCell id="1" parent="0" />
        <mxCell id="5EyspFnGqT75Ce_qzCmO-32" value="" style="rounded=0;whiteSpace=wrap;html=1;" parent="1" vertex="1">
          <mxGeometry x="441" y="-540" width="159" height="40" as="geometry" />
        </mxCell>
        <mxCell id="5EyspFnGqT75Ce_qzCmO-27" value="" style="rounded=0;whiteSpace=wrap;html=1;" parent="1" vertex="1">
          <mxGeometry x="451" y="-860" width="149" height="40" as="geometry" />
        </mxCell>
        <mxCell id="5EyspFnGqT75Ce_qzCmO-1" value="" style="group" parent="1" vertex="1" connectable="0">
          <mxGeometry x="320" y="-1040" width="80" height="80" as="geometry" />
        </mxCell>
        <mxCell id="5EyspFnGqT75Ce_qzCmO-2" value="" style="whiteSpace=wrap;html=1;aspect=fixed;" parent="5EyspFnGqT75Ce_qzCmO-1" vertex="1">
          <mxGeometry width="80" height="80" as="geometry" />
        </mxCell>
        <mxCell id="5EyspFnGqT75Ce_qzCmO-3" value="" style="whiteSpace=wrap;html=1;aspect=fixed;" parent="5EyspFnGqT75Ce_qzCmO-1" vertex="1">
          <mxGeometry x="10" y="10" width="60" height="60" as="geometry" />
        </mxCell>
        <mxCell id="5EyspFnGqT75Ce_qzCmO-4" value="&lt;font size=&quot;1&quot;&gt;&lt;b style=&quot;font-size: 18px&quot;&gt;X0&lt;/b&gt;&lt;/font&gt;" style="text;html=1;strokeColor=none;fillColor=none;align=center;verticalAlign=middle;whiteSpace=wrap;rounded=0;" parent="5EyspFnGqT75Ce_qzCmO-1" vertex="1">
          <mxGeometry x="20" y="30" width="40" height="20" as="geometry" />
        </mxCell>
        <mxCell id="5EyspFnGqT75Ce_qzCmO-6" value="" style="endArrow=none;html=1;entryX=0.5;entryY=1;entryDx=0;entryDy=0;exitX=0.5;exitY=0;exitDx=0;exitDy=0;" parent="1" source="5EyspFnGqT75Ce_qzCmO-7" edge="1">
          <mxGeometry width="50" height="50" relative="1" as="geometry">
            <mxPoint x="360" y="-920" as="sourcePoint" />
            <mxPoint x="360" y="-960" as="targetPoint" />
            <Array as="points">
              <mxPoint x="359.65999999999997" y="-940" />
            </Array>
          </mxGeometry>
        </mxCell>
        <mxCell id="5EyspFnGqT75Ce_qzCmO-7" value="" style="whiteSpace=wrap;html=1;aspect=fixed;" parent="1" vertex="1">
          <mxGeometry x="320.0000000000001" y="-880" width="80" height="80" as="geometry" />
        </mxCell>
        <mxCell id="5EyspFnGqT75Ce_qzCmO-8" value="" style="endArrow=none;html=1;strokeWidth=2;" parent="1" edge="1">
          <mxGeometry width="50" height="50" relative="1" as="geometry">
            <mxPoint x="330" y="-920" as="sourcePoint" />
            <mxPoint x="390" y="-920" as="targetPoint" />
          </mxGeometry>
        </mxCell>
        <mxCell id="5EyspFnGqT75Ce_qzCmO-9" value="" style="endArrow=none;html=1;entryX=0.5;entryY=1;entryDx=0;entryDy=0;exitX=0.5;exitY=0;exitDx=0;exitDy=0;" parent="1" source="5EyspFnGqT75Ce_qzCmO-10" edge="1">
          <mxGeometry width="50" height="50" relative="1" as="geometry">
            <mxPoint x="360" y="-760" as="sourcePoint" />
            <mxPoint x="360" y="-800" as="targetPoint" />
            <Array as="points">
              <mxPoint x="359.65999999999997" y="-780" />
            </Array>
          </mxGeometry>
        </mxCell>
        <mxCell id="5EyspFnGqT75Ce_qzCmO-10" value="" style="whiteSpace=wrap;html=1;aspect=fixed;" parent="1" vertex="1">
          <mxGeometry x="320.0000000000001" y="-720" width="80" height="80" as="geometry" />
        </mxCell>
        <mxCell id="5EyspFnGqT75Ce_qzCmO-11" value="" style="endArrow=none;html=1;strokeWidth=2;" parent="1" edge="1">
          <mxGeometry width="50" height="50" relative="1" as="geometry">
            <mxPoint x="330" y="-760" as="sourcePoint" />
            <mxPoint x="390" y="-760" as="targetPoint" />
          </mxGeometry>
        </mxCell>
        <mxCell id="5EyspFnGqT75Ce_qzCmO-12" value="&lt;font size=&quot;1&quot;&gt;&lt;b style=&quot;font-size: 18px&quot;&gt;X1&lt;/b&gt;&lt;/font&gt;" style="text;html=1;strokeColor=none;fillColor=none;align=center;verticalAlign=middle;whiteSpace=wrap;rounded=0;" parent="1" vertex="1">
          <mxGeometry x="340" y="-850" width="40" height="20" as="geometry" />
        </mxCell>
        <mxCell id="5EyspFnGqT75Ce_qzCmO-13" value="&lt;font size=&quot;1&quot;&gt;&lt;b style=&quot;font-size: 18px&quot;&gt;X2&lt;/b&gt;&lt;/font&gt;" style="text;html=1;strokeColor=none;fillColor=none;align=center;verticalAlign=middle;whiteSpace=wrap;rounded=0;" parent="1" vertex="1">
          <mxGeometry x="340" y="-690" width="40" height="20" as="geometry" />
        </mxCell>
        <mxCell id="5EyspFnGqT75Ce_qzCmO-14" value="&lt;font style=&quot;font-size: 16px&quot;&gt;Etape F1 du Grafcet MaÃ®tre active&lt;br&gt;&lt;/font&gt;" style="text;html=1;strokeColor=none;fillColor=none;align=left;verticalAlign=middle;whiteSpace=wrap;rounded=0;" parent="1" vertex="1">
          <mxGeometry x="413" y="-930" width="247" height="20" as="geometry" />
        </mxCell>
        <mxCell id="5EyspFnGqT75Ce_qzCmO-15" value="" style="endArrow=none;html=1;strokeWidth=1;" parent="1" edge="1">
          <mxGeometry width="50" height="50" relative="1" as="geometry">
            <mxPoint x="400" y="-840.3400000000001" as="sourcePoint" />
            <mxPoint x="450" y="-840.3400000000001" as="targetPoint" />
          </mxGeometry>
        </mxCell>
        <mxCell id="5EyspFnGqT75Ce_qzCmO-16" value="&lt;font style=&quot;font-size: 16px&quot;&gt;Chaut&lt;br&gt;&lt;/font&gt;" style="text;html=1;strokeColor=none;fillColor=none;align=left;verticalAlign=middle;whiteSpace=wrap;rounded=0;" parent="1" vertex="1">
          <mxGeometry x="413" y="-770" width="77" height="20" as="geometry" />
        </mxCell>
        <mxCell id="5EyspFnGqT75Ce_qzCmO-17" value="&lt;font style=&quot;font-size: 16px&quot;&gt;&lt;br&gt;&lt;/font&gt;" style="text;html=1;strokeColor=none;fillColor=none;align=left;verticalAlign=middle;whiteSpace=wrap;rounded=0;" parent="1" vertex="1">
          <mxGeometry x="413" y="-450" width="106" height="20" as="geometry" />
        </mxCell>
        <mxCell id="5EyspFnGqT75Ce_qzCmO-18" value="&lt;font style=&quot;font-size: 16px&quot;&gt;Cmd_Montee&lt;/font&gt;" style="text;html=1;strokeColor=none;fillColor=none;align=left;verticalAlign=middle;whiteSpace=wrap;rounded=0;" parent="1" vertex="1">
          <mxGeometry x="461" y="-850" width="100" height="20" as="geometry" />
        </mxCell>
        <mxCell id="5EyspFnGqT75Ce_qzCmO-19" value="" style="whiteSpace=wrap;html=1;aspect=fixed;" parent="1" vertex="1">
          <mxGeometry x="319.5" y="-560" width="80" height="80" as="geometry" />
        </mxCell>
        <mxCell id="5EyspFnGqT75Ce_qzCmO-20" value="&lt;span style=&quot;font-size: 18px&quot;&gt;&lt;b&gt;X3&lt;/b&gt;&lt;/span&gt;" style="text;html=1;strokeColor=none;fillColor=none;align=center;verticalAlign=middle;whiteSpace=wrap;rounded=0;" parent="1" vertex="1">
          <mxGeometry x="339.5" y="-530" width="40" height="20" as="geometry" />
        </mxCell>
        <mxCell id="5EyspFnGqT75Ce_qzCmO-21" value="&lt;font style=&quot;font-size: 16px&quot;&gt;Cmd_Descente&lt;/font&gt;" style="text;html=1;strokeColor=none;fillColor=none;align=left;verticalAlign=middle;whiteSpace=wrap;rounded=0;" parent="1" vertex="1">
          <mxGeometry x="447.5" y="-530" width="140" height="20" as="geometry" />
        </mxCell>
        <mxCell id="5EyspFnGqT75Ce_qzCmO-22" value="" style="endArrow=none;html=1;strokeWidth=1;entryX=0;entryY=0.5;entryDx=0;entryDy=0;exitX=1;exitY=0.5;exitDx=0;exitDy=0;" parent="1" source="5EyspFnGqT75Ce_qzCmO-19" edge="1">
          <mxGeometry width="50" height="50" relative="1" as="geometry">
            <mxPoint x="399.5" y="-520.5" as="sourcePoint" />
            <mxPoint x="440.5" y="-520" as="targetPoint" />
          </mxGeometry>
        </mxCell>
        <mxCell id="5EyspFnGqT75Ce_qzCmO-23" value="" style="endArrow=none;html=1;strokeWidth=2;" parent="1" edge="1">
          <mxGeometry width="50" height="50" relative="1" as="geometry">
            <mxPoint x="329.5" y="-440" as="sourcePoint" />
            <mxPoint x="389.5" y="-440" as="targetPoint" />
          </mxGeometry>
        </mxCell>
        <mxCell id="5EyspFnGqT75Ce_qzCmO-25" value="" style="endArrow=none;html=1;entryX=0.5;entryY=1;entryDx=0;entryDy=0;exitX=0.5;exitY=0;exitDx=0;exitDy=0;" parent="1" edge="1">
          <mxGeometry width="50" height="50" relative="1" as="geometry">
            <mxPoint x="359.75" y="-560.0000000000002" as="sourcePoint" />
            <mxPoint x="359.75" y="-640" as="targetPoint" />
            <Array as="points">
              <mxPoint x="359.40999999999997" y="-620" />
            </Array>
          </mxGeometry>
        </mxCell>
        <mxCell id="5EyspFnGqT75Ce_qzCmO-26" value="" style="endArrow=none;html=1;strokeWidth=2;" parent="1" edge="1">
          <mxGeometry width="50" height="50" relative="1" as="geometry">
            <mxPoint x="329.5" y="-599.9999999999998" as="sourcePoint" />
            <mxPoint x="389.5" y="-599.9999999999998" as="targetPoint" />
          </mxGeometry>
        </mxCell>
        <mxCell id="5EyspFnGqT75Ce_qzCmO-37" value="" style="rounded=0;whiteSpace=wrap;html=1;" parent="1" vertex="1">
          <mxGeometry x="441.5" y="-700" width="159" height="40" as="geometry" />
        </mxCell>
        <mxCell id="5EyspFnGqT75Ce_qzCmO-38" value="&lt;span style=&quot;font-size: 16px&quot;&gt;Cmd_Avance&lt;/span&gt;" style="text;html=1;strokeColor=none;fillColor=none;align=left;verticalAlign=middle;whiteSpace=wrap;rounded=0;" parent="1" vertex="1">
          <mxGeometry x="448" y="-690" width="140" height="20" as="geometry" />
        </mxCell>
        <mxCell id="5EyspFnGqT75Ce_qzCmO-39" value="" style="endArrow=none;html=1;strokeWidth=1;entryX=0;entryY=0.5;entryDx=0;entryDy=0;exitX=1;exitY=0.5;exitDx=0;exitDy=0;" parent="1" edge="1">
          <mxGeometry width="50" height="50" relative="1" as="geometry">
            <mxPoint x="400" y="-680" as="sourcePoint" />
            <mxPoint x="441" y="-680" as="targetPoint" />
          </mxGeometry>
        </mxCell>
        <mxCell id="5EyspFnGqT75Ce_qzCmO-40" value="&lt;font style=&quot;font-size: 16px&quot;&gt;Cuv1&lt;br&gt;&lt;/font&gt;" style="text;html=1;strokeColor=none;fillColor=none;align=left;verticalAlign=middle;whiteSpace=wrap;rounded=0;" parent="1" vertex="1">
          <mxGeometry x="414" y="-610" width="77" height="20" as="geometry" />
        </mxCell>
        <mxCell id="5EyspFnGqT75Ce_qzCmO-41" value="&lt;font style=&quot;font-size: 16px&quot;&gt;Cbas&lt;br&gt;&lt;/font&gt;" style="text;html=1;strokeColor=none;fillColor=none;align=left;verticalAlign=middle;whiteSpace=wrap;rounded=0;" parent="1" vertex="1">
          <mxGeometry x="420" y="-450" width="77" height="20" as="geometry" />
        </mxCell>
        <mxCell id="5EyspFnGqT75Ce_qzCmO-43" value="" style="endArrow=none;html=1;entryX=0.5;entryY=1;entryDx=0;entryDy=0;exitX=0.5;exitY=0;exitDx=0;exitDy=0;" parent="1" edge="1">
          <mxGeometry width="50" height="50" relative="1" as="geometry">
            <mxPoint x="360.14" y="-400.0000000000002" as="sourcePoint" />
            <mxPoint x="360.14" y="-480" as="targetPoint" />
            <Array as="points">
              <mxPoint x="359.79999999999995" y="-460" />
            </Array>
          </mxGeometry>
        </mxCell>
        <mxCell id="WSJRSLspplaYHqe291Kl-2" value="" style="endArrow=none;html=1;" parent="1" edge="1">
          <mxGeometry width="50" height="50" relative="1" as="geometry">
            <mxPoint x="200" y="1920" as="sourcePoint" />
            <mxPoint x="200" y="-1080" as="targetPoint" />
          </mxGeometry>
        </mxCell>
        <mxCell id="WSJRSLspplaYHqe291Kl-3" value="" style="endArrow=none;html=1;" parent="1" edge="1">
          <mxGeometry width="50" height="50" relative="1" as="geometry">
            <mxPoint x="200" y="-1080" as="sourcePoint" />
            <mxPoint x="360" y="-1080" as="targetPoint" />
          </mxGeometry>
        </mxCell>
        <mxCell id="WSJRSLspplaYHqe291Kl-4" value="" style="endArrow=none;html=1;" parent="1" edge="1">
          <mxGeometry width="50" height="50" relative="1" as="geometry">
            <mxPoint x="360" y="-1040" as="sourcePoint" />
            <mxPoint x="360" y="-1080" as="targetPoint" />
          </mxGeometry>
        </mxCell>
        <mxCell id="WSJRSLspplaYHqe291Kl-5" value="" style="endArrow=none;html=1;strokeWidth=4;" parent="1" edge="1">
          <mxGeometry width="50" height="50" relative="1" as="geometry">
            <mxPoint x="180" y="-520" as="sourcePoint" />
            <mxPoint x="200" y="-560" as="targetPoint" />
          </mxGeometry>
        </mxCell>
        <mxCell id="WSJRSLspplaYHqe291Kl-6" value="" style="endArrow=none;html=1;strokeWidth=4;" parent="1" edge="1">
          <mxGeometry width="50" height="50" relative="1" as="geometry">
            <mxPoint x="220" y="-520" as="sourcePoint" />
            <mxPoint x="200" y="-560" as="targetPoint" />
          </mxGeometry>
        </mxCell>
        <mxCell id="sFBRQRY5h0tsfyVUQxu8-4" value="" style="whiteSpace=wrap;html=1;aspect=fixed;" parent="1" vertex="1">
          <mxGeometry x="318.5000000000001" y="-400" width="80" height="80" as="geometry" />
        </mxCell>
        <mxCell id="sFBRQRY5h0tsfyVUQxu8-5" value="" style="endArrow=none;html=1;entryX=0.5;entryY=1;entryDx=0;entryDy=0;exitX=0.5;exitY=0;exitDx=0;exitDy=0;" parent="1" source="sFBRQRY5h0tsfyVUQxu8-6" edge="1">
          <mxGeometry width="50" height="50" relative="1" as="geometry">
            <mxPoint x="358.5" y="-280" as="sourcePoint" />
            <mxPoint x="358.5" y="-320" as="targetPoint" />
            <Array as="points">
              <mxPoint x="358.15999999999997" y="-300" />
            </Array>
          </mxGeometry>
        </mxCell>
        <mxCell id="sFBRQRY5h0tsfyVUQxu8-6" value="" style="whiteSpace=wrap;html=1;aspect=fixed;" parent="1" vertex="1">
          <mxGeometry x="318.5000000000001" y="-240" width="80" height="80" as="geometry" />
        </mxCell>
        <mxCell id="sFBRQRY5h0tsfyVUQxu8-7" value="" style="endArrow=none;html=1;strokeWidth=2;" parent="1" edge="1">
          <mxGeometry width="50" height="50" relative="1" as="geometry">
            <mxPoint x="328.5" y="-280" as="sourcePoint" />
            <mxPoint x="388.5" y="-280" as="targetPoint" />
          </mxGeometry>
        </mxCell>
        <mxCell id="sFBRQRY5h0tsfyVUQxu8-8" value="&lt;font size=&quot;1&quot;&gt;&lt;b style=&quot;font-size: 18px&quot;&gt;X4&lt;/b&gt;&lt;/font&gt;" style="text;html=1;strokeColor=none;fillColor=none;align=center;verticalAlign=middle;whiteSpace=wrap;rounded=0;" parent="1" vertex="1">
          <mxGeometry x="338.5" y="-370" width="40" height="20" as="geometry" />
        </mxCell>
        <mxCell id="sFBRQRY5h0tsfyVUQxu8-9" value="&lt;font size=&quot;1&quot;&gt;&lt;b style=&quot;font-size: 18px&quot;&gt;X5&lt;/b&gt;&lt;/font&gt;" style="text;html=1;strokeColor=none;fillColor=none;align=center;verticalAlign=middle;whiteSpace=wrap;rounded=0;" parent="1" vertex="1">
          <mxGeometry x="338.5" y="-210" width="40" height="20" as="geometry" />
        </mxCell>
        <mxCell id="sFBRQRY5h0tsfyVUQxu8-10" value="" style="endArrow=none;html=1;strokeWidth=1;" parent="1" edge="1">
          <mxGeometry width="50" height="50" relative="1" as="geometry">
            <mxPoint x="398.5" y="-360.34000000000015" as="sourcePoint" />
            <mxPoint x="448.5" y="-360.34000000000015" as="targetPoint" />
          </mxGeometry>
        </mxCell>
        <mxCell id="sFBRQRY5h0tsfyVUQxu8-11" value="&lt;font style=&quot;font-size: 16px&quot;&gt;%T4s&lt;br&gt;&lt;/font&gt;" style="text;html=1;strokeColor=none;fillColor=none;align=left;verticalAlign=middle;whiteSpace=wrap;rounded=0;" parent="1" vertex="1">
          <mxGeometry x="411.5" y="-290" width="77" height="20" as="geometry" />
        </mxCell>
        <mxCell id="sFBRQRY5h0tsfyVUQxu8-12" value="&lt;font style=&quot;font-size: 16px&quot;&gt;&lt;br&gt;&lt;/font&gt;" style="text;html=1;strokeColor=none;fillColor=none;align=left;verticalAlign=middle;whiteSpace=wrap;rounded=0;" parent="1" vertex="1">
          <mxGeometry x="411.5" y="30" width="106" height="20" as="geometry" />
        </mxCell>
        <mxCell id="sFBRQRY5h0tsfyVUQxu8-13" value="&lt;font style=&quot;font-size: 16px&quot;&gt;Trempage&lt;/font&gt;" style="text;html=1;strokeColor=none;fillColor=none;align=left;verticalAlign=middle;whiteSpace=wrap;rounded=0;" parent="1" vertex="1">
          <mxGeometry x="459.5" y="-370" width="100" height="20" as="geometry" />
        </mxCell>
        <mxCell id="sFBRQRY5h0tsfyVUQxu8-14" value="" style="whiteSpace=wrap;html=1;aspect=fixed;" parent="1" vertex="1">
          <mxGeometry x="318" y="-80" width="80" height="80" as="geometry" />
        </mxCell>
        <mxCell id="sFBRQRY5h0tsfyVUQxu8-15" value="&lt;span style=&quot;font-size: 18px&quot;&gt;&lt;b&gt;X6&lt;/b&gt;&lt;/span&gt;" style="text;html=1;strokeColor=none;fillColor=none;align=center;verticalAlign=middle;whiteSpace=wrap;rounded=0;" parent="1" vertex="1">
          <mxGeometry x="338" y="-50" width="40" height="20" as="geometry" />
        </mxCell>
        <mxCell id="sFBRQRY5h0tsfyVUQxu8-16" value="&lt;font style=&quot;font-size: 16px&quot;&gt;Egouttage&lt;/font&gt;" style="text;html=1;strokeColor=none;fillColor=none;align=left;verticalAlign=middle;whiteSpace=wrap;rounded=0;" parent="1" vertex="1">
          <mxGeometry x="446" y="-50" width="140" height="20" as="geometry" />
        </mxCell>
        <mxCell id="sFBRQRY5h0tsfyVUQxu8-17" value="" style="endArrow=none;html=1;strokeWidth=1;entryX=0;entryY=0.5;entryDx=0;entryDy=0;exitX=1;exitY=0.5;exitDx=0;exitDy=0;" parent="1" source="sFBRQRY5h0tsfyVUQxu8-14" edge="1">
          <mxGeometry width="50" height="50" relative="1" as="geometry">
            <mxPoint x="398" y="-40.5" as="sourcePoint" />
            <mxPoint x="439" y="-40" as="targetPoint" />
          </mxGeometry>
        </mxCell>
        <mxCell id="sFBRQRY5h0tsfyVUQxu8-18" value="" style="endArrow=none;html=1;strokeWidth=2;" parent="1" edge="1">
          <mxGeometry width="50" height="50" relative="1" as="geometry">
            <mxPoint x="328" y="40" as="sourcePoint" />
            <mxPoint x="388" y="40" as="targetPoint" />
          </mxGeometry>
        </mxCell>
        <mxCell id="sFBRQRY5h0tsfyVUQxu8-19" value="" style="endArrow=none;html=1;entryX=0.5;entryY=1;entryDx=0;entryDy=0;exitX=0.5;exitY=0;exitDx=0;exitDy=0;" parent="1" edge="1">
          <mxGeometry width="50" height="50" relative="1" as="geometry">
            <mxPoint x="358.25" y="-80.00000000000023" as="sourcePoint" />
            <mxPoint x="358.25" y="-160" as="targetPoint" />
            <Array as="points">
              <mxPoint x="357.90999999999997" y="-140" />
            </Array>
          </mxGeometry>
        </mxCell>
        <mxCell id="sFBRQRY5h0tsfyVUQxu8-20" value="" style="endArrow=none;html=1;strokeWidth=2;" parent="1" edge="1">
          <mxGeometry width="50" height="50" relative="1" as="geometry">
            <mxPoint x="328" y="-119.99999999999977" as="sourcePoint" />
            <mxPoint x="388" y="-119.99999999999977" as="targetPoint" />
          </mxGeometry>
        </mxCell>
        <mxCell id="sFBRQRY5h0tsfyVUQxu8-21" value="" style="rounded=0;whiteSpace=wrap;html=1;" parent="1" vertex="1">
          <mxGeometry x="440" y="-220" width="159" height="40" as="geometry" />
        </mxCell>
        <mxCell id="sFBRQRY5h0tsfyVUQxu8-22" value="&lt;span style=&quot;font-size: 16px&quot;&gt;Cmd_Montee&lt;/span&gt;" style="text;html=1;strokeColor=none;fillColor=none;align=left;verticalAlign=middle;whiteSpace=wrap;rounded=0;" parent="1" vertex="1">
          <mxGeometry x="446.5" y="-210" width="140" height="20" as="geometry" />
        </mxCell>
        <mxCell id="sFBRQRY5h0tsfyVUQxu8-23" value="" style="endArrow=none;html=1;strokeWidth=1;entryX=0;entryY=0.5;entryDx=0;entryDy=0;exitX=1;exitY=0.5;exitDx=0;exitDy=0;" parent="1" edge="1">
          <mxGeometry width="50" height="50" relative="1" as="geometry">
            <mxPoint x="398.5" y="-200" as="sourcePoint" />
            <mxPoint x="439.5" y="-200" as="targetPoint" />
          </mxGeometry>
        </mxCell>
        <mxCell id="sFBRQRY5h0tsfyVUQxu8-24" value="&lt;font style=&quot;font-size: 16px&quot;&gt;Chaut&lt;br&gt;&lt;/font&gt;" style="text;html=1;strokeColor=none;fillColor=none;align=left;verticalAlign=middle;whiteSpace=wrap;rounded=0;" parent="1" vertex="1">
          <mxGeometry x="412.5" y="-130" width="77" height="20" as="geometry" />
        </mxCell>
        <mxCell id="sFBRQRY5h0tsfyVUQxu8-25" value="&lt;font style=&quot;font-size: 16px&quot;&gt;%T3s&lt;br&gt;&lt;/font&gt;" style="text;html=1;strokeColor=none;fillColor=none;align=left;verticalAlign=middle;whiteSpace=wrap;rounded=0;" parent="1" vertex="1">
          <mxGeometry x="418.5" y="30" width="77" height="20" as="geometry" />
        </mxCell>
        <mxCell id="sFBRQRY5h0tsfyVUQxu8-26" value="" style="endArrow=none;html=1;entryX=0.5;entryY=1;entryDx=0;entryDy=0;exitX=0.5;exitY=0;exitDx=0;exitDy=0;" parent="1" edge="1">
          <mxGeometry width="50" height="50" relative="1" as="geometry">
            <mxPoint x="358.6399999999999" y="79.99999999999977" as="sourcePoint" />
            <mxPoint x="358.6399999999999" as="targetPoint" />
            <Array as="points">
              <mxPoint x="358.29999999999995" y="20" />
            </Array>
          </mxGeometry>
        </mxCell>
        <mxCell id="sFBRQRY5h0tsfyVUQxu8-28" value="" style="rounded=0;whiteSpace=wrap;html=1;" parent="1" vertex="1">
          <mxGeometry x="453" y="100" width="149" height="40" as="geometry" />
        </mxCell>
        <mxCell id="sFBRQRY5h0tsfyVUQxu8-29" value="" style="whiteSpace=wrap;html=1;aspect=fixed;" parent="1" vertex="1">
          <mxGeometry x="322.0000000000001" y="80" width="80" height="80" as="geometry" />
        </mxCell>
        <mxCell id="sFBRQRY5h0tsfyVUQxu8-30" value="" style="endArrow=none;html=1;entryX=0.5;entryY=1;entryDx=0;entryDy=0;exitX=0.5;exitY=0;exitDx=0;exitDy=0;" parent="1" source="sFBRQRY5h0tsfyVUQxu8-31" edge="1">
          <mxGeometry width="50" height="50" relative="1" as="geometry">
            <mxPoint x="362" y="200" as="sourcePoint" />
            <mxPoint x="362" y="160" as="targetPoint" />
            <Array as="points">
              <mxPoint x="361.65999999999997" y="180" />
            </Array>
          </mxGeometry>
        </mxCell>
        <mxCell id="sFBRQRY5h0tsfyVUQxu8-31" value="" style="whiteSpace=wrap;html=1;aspect=fixed;" parent="1" vertex="1">
          <mxGeometry x="322.0000000000001" y="240" width="80" height="80" as="geometry" />
        </mxCell>
        <mxCell id="sFBRQRY5h0tsfyVUQxu8-32" value="" style="endArrow=none;html=1;strokeWidth=2;" parent="1" edge="1">
          <mxGeometry width="50" height="50" relative="1" as="geometry">
            <mxPoint x="332" y="200" as="sourcePoint" />
            <mxPoint x="392" y="200" as="targetPoint" />
          </mxGeometry>
        </mxCell>
        <mxCell id="sFBRQRY5h0tsfyVUQxu8-33" value="&lt;font size=&quot;1&quot;&gt;&lt;b style=&quot;font-size: 18px&quot;&gt;X7&lt;/b&gt;&lt;/font&gt;" style="text;html=1;strokeColor=none;fillColor=none;align=center;verticalAlign=middle;whiteSpace=wrap;rounded=0;" parent="1" vertex="1">
          <mxGeometry x="342" y="110" width="40" height="20" as="geometry" />
        </mxCell>
        <mxCell id="sFBRQRY5h0tsfyVUQxu8-34" value="&lt;font size=&quot;1&quot;&gt;&lt;b style=&quot;font-size: 18px&quot;&gt;X8&lt;/b&gt;&lt;/font&gt;" style="text;html=1;strokeColor=none;fillColor=none;align=center;verticalAlign=middle;whiteSpace=wrap;rounded=0;" parent="1" vertex="1">
          <mxGeometry x="342" y="270" width="40" height="20" as="geometry" />
        </mxCell>
        <mxCell id="sFBRQRY5h0tsfyVUQxu8-35" value="" style="endArrow=none;html=1;strokeWidth=1;" parent="1" edge="1">
          <mxGeometry width="50" height="50" relative="1" as="geometry">
            <mxPoint x="402" y="119.65999999999985" as="sourcePoint" />
            <mxPoint x="452" y="119.65999999999985" as="targetPoint" />
          </mxGeometry>
        </mxCell>
        <mxCell id="sFBRQRY5h0tsfyVUQxu8-36" value="&lt;font style=&quot;font-size: 16px&quot;&gt;Cuv3&lt;br&gt;&lt;/font&gt;" style="text;html=1;strokeColor=none;fillColor=none;align=left;verticalAlign=middle;whiteSpace=wrap;rounded=0;" parent="1" vertex="1">
          <mxGeometry x="415" y="190" width="77" height="20" as="geometry" />
        </mxCell>
        <mxCell id="sFBRQRY5h0tsfyVUQxu8-37" value="&lt;font style=&quot;font-size: 16px&quot;&gt;&lt;br&gt;&lt;/font&gt;" style="text;html=1;strokeColor=none;fillColor=none;align=left;verticalAlign=middle;whiteSpace=wrap;rounded=0;" parent="1" vertex="1">
          <mxGeometry x="415" y="510" width="106" height="20" as="geometry" />
        </mxCell>
        <mxCell id="sFBRQRY5h0tsfyVUQxu8-38" value="&lt;font style=&quot;font-size: 16px&quot;&gt;Cmd_Avance&lt;/font&gt;" style="text;html=1;strokeColor=none;fillColor=none;align=left;verticalAlign=middle;whiteSpace=wrap;rounded=0;" parent="1" vertex="1">
          <mxGeometry x="463" y="110" width="100" height="20" as="geometry" />
        </mxCell>
        <mxCell id="sFBRQRY5h0tsfyVUQxu8-39" value="" style="whiteSpace=wrap;html=1;aspect=fixed;" parent="1" vertex="1">
          <mxGeometry x="321.5" y="400" width="80" height="80" as="geometry" />
        </mxCell>
        <mxCell id="sFBRQRY5h0tsfyVUQxu8-40" value="&lt;span style=&quot;font-size: 18px&quot;&gt;&lt;b&gt;X9&lt;/b&gt;&lt;/span&gt;" style="text;html=1;strokeColor=none;fillColor=none;align=center;verticalAlign=middle;whiteSpace=wrap;rounded=0;" parent="1" vertex="1">
          <mxGeometry x="341.5" y="430" width="40" height="20" as="geometry" />
        </mxCell>
        <mxCell id="sFBRQRY5h0tsfyVUQxu8-41" value="&lt;font style=&quot;font-size: 16px&quot;&gt;Trempage&lt;/font&gt;" style="text;html=1;strokeColor=none;fillColor=none;align=left;verticalAlign=middle;whiteSpace=wrap;rounded=0;" parent="1" vertex="1">
          <mxGeometry x="449.5" y="430" width="140" height="20" as="geometry" />
        </mxCell>
        <mxCell id="sFBRQRY5h0tsfyVUQxu8-42" value="" style="endArrow=none;html=1;strokeWidth=1;entryX=0;entryY=0.5;entryDx=0;entryDy=0;exitX=1;exitY=0.5;exitDx=0;exitDy=0;" parent="1" source="sFBRQRY5h0tsfyVUQxu8-39" edge="1">
          <mxGeometry width="50" height="50" relative="1" as="geometry">
            <mxPoint x="401.5" y="439.5" as="sourcePoint" />
            <mxPoint x="442.5" y="440" as="targetPoint" />
          </mxGeometry>
        </mxCell>
        <mxCell id="sFBRQRY5h0tsfyVUQxu8-43" value="" style="endArrow=none;html=1;strokeWidth=2;" parent="1" edge="1">
          <mxGeometry width="50" height="50" relative="1" as="geometry">
            <mxPoint x="331.49999999999955" y="520" as="sourcePoint" />
            <mxPoint x="391.49999999999955" y="520" as="targetPoint" />
          </mxGeometry>
        </mxCell>
        <mxCell id="sFBRQRY5h0tsfyVUQxu8-44" value="" style="endArrow=none;html=1;entryX=0.5;entryY=1;entryDx=0;entryDy=0;exitX=0.5;exitY=0;exitDx=0;exitDy=0;" parent="1" edge="1">
          <mxGeometry width="50" height="50" relative="1" as="geometry">
            <mxPoint x="361.75" y="399.9999999999998" as="sourcePoint" />
            <mxPoint x="361.75" y="320" as="targetPoint" />
            <Array as="points">
              <mxPoint x="361.40999999999997" y="340" />
            </Array>
          </mxGeometry>
        </mxCell>
        <mxCell id="sFBRQRY5h0tsfyVUQxu8-45" value="" style="endArrow=none;html=1;strokeWidth=2;" parent="1" edge="1">
          <mxGeometry width="50" height="50" relative="1" as="geometry">
            <mxPoint x="331.49999999999955" y="360.0000000000002" as="sourcePoint" />
            <mxPoint x="391.49999999999955" y="360.0000000000002" as="targetPoint" />
          </mxGeometry>
        </mxCell>
        <mxCell id="sFBRQRY5h0tsfyVUQxu8-46" value="" style="rounded=0;whiteSpace=wrap;html=1;" parent="1" vertex="1">
          <mxGeometry x="443.5" y="260" width="159" height="40" as="geometry" />
        </mxCell>
        <mxCell id="sFBRQRY5h0tsfyVUQxu8-47" value="&lt;span style=&quot;font-size: 16px&quot;&gt;Cmd_Descente&lt;/span&gt;" style="text;html=1;strokeColor=none;fillColor=none;align=left;verticalAlign=middle;whiteSpace=wrap;rounded=0;" parent="1" vertex="1">
          <mxGeometry x="450" y="270" width="140" height="20" as="geometry" />
        </mxCell>
        <mxCell id="sFBRQRY5h0tsfyVUQxu8-48" value="" style="endArrow=none;html=1;strokeWidth=1;entryX=0;entryY=0.5;entryDx=0;entryDy=0;exitX=1;exitY=0.5;exitDx=0;exitDy=0;" parent="1" edge="1">
          <mxGeometry width="50" height="50" relative="1" as="geometry">
            <mxPoint x="402" y="280" as="sourcePoint" />
            <mxPoint x="443" y="280" as="targetPoint" />
          </mxGeometry>
        </mxCell>
        <mxCell id="sFBRQRY5h0tsfyVUQxu8-49" value="&lt;font style=&quot;font-size: 16px&quot;&gt;Cbas&lt;br&gt;&lt;/font&gt;" style="text;html=1;strokeColor=none;fillColor=none;align=left;verticalAlign=middle;whiteSpace=wrap;rounded=0;" parent="1" vertex="1">
          <mxGeometry x="416" y="350" width="77" height="20" as="geometry" />
        </mxCell>
        <mxCell id="sFBRQRY5h0tsfyVUQxu8-50" value="&lt;font style=&quot;font-size: 16px&quot;&gt;%T4s&lt;br&gt;&lt;/font&gt;" style="text;html=1;strokeColor=none;fillColor=none;align=left;verticalAlign=middle;whiteSpace=wrap;rounded=0;" parent="1" vertex="1">
          <mxGeometry x="422" y="510" width="77" height="20" as="geometry" />
        </mxCell>
        <mxCell id="sFBRQRY5h0tsfyVUQxu8-51" value="" style="endArrow=none;html=1;entryX=0.5;entryY=1;entryDx=0;entryDy=0;exitX=0.5;exitY=0;exitDx=0;exitDy=0;" parent="1" edge="1">
          <mxGeometry width="50" height="50" relative="1" as="geometry">
            <mxPoint x="362.1399999999999" y="560" as="sourcePoint" />
            <mxPoint x="362.1399999999999" y="480" as="targetPoint" />
            <Array as="points">
              <mxPoint x="361.79999999999995" y="500" />
            </Array>
          </mxGeometry>
        </mxCell>
        <mxCell id="sFBRQRY5h0tsfyVUQxu8-52" value="" style="rounded=0;whiteSpace=wrap;html=1;" parent="1" vertex="1">
          <mxGeometry x="441.5" y="900" width="159" height="40" as="geometry" />
        </mxCell>
        <mxCell id="sFBRQRY5h0tsfyVUQxu8-53" value="" style="rounded=0;whiteSpace=wrap;html=1;" parent="1" vertex="1">
          <mxGeometry x="451.5" y="580" width="149" height="40" as="geometry" />
        </mxCell>
        <mxCell id="sFBRQRY5h0tsfyVUQxu8-54" value="" style="whiteSpace=wrap;html=1;aspect=fixed;" parent="1" vertex="1">
          <mxGeometry x="320.5000000000001" y="560" width="80" height="80" as="geometry" />
        </mxCell>
        <mxCell id="sFBRQRY5h0tsfyVUQxu8-55" value="" style="endArrow=none;html=1;entryX=0.5;entryY=1;entryDx=0;entryDy=0;exitX=0.5;exitY=0;exitDx=0;exitDy=0;" parent="1" source="sFBRQRY5h0tsfyVUQxu8-56" edge="1">
          <mxGeometry width="50" height="50" relative="1" as="geometry">
            <mxPoint x="360.5" y="680" as="sourcePoint" />
            <mxPoint x="360.5" y="640" as="targetPoint" />
            <Array as="points">
              <mxPoint x="360.15999999999997" y="660" />
            </Array>
          </mxGeometry>
        </mxCell>
        <mxCell id="sFBRQRY5h0tsfyVUQxu8-56" value="" style="whiteSpace=wrap;html=1;aspect=fixed;" parent="1" vertex="1">
          <mxGeometry x="320.5000000000001" y="720" width="80" height="80" as="geometry" />
        </mxCell>
        <mxCell id="sFBRQRY5h0tsfyVUQxu8-57" value="" style="endArrow=none;html=1;strokeWidth=2;" parent="1" edge="1">
          <mxGeometry width="50" height="50" relative="1" as="geometry">
            <mxPoint x="330.5" y="680" as="sourcePoint" />
            <mxPoint x="390.5" y="680" as="targetPoint" />
          </mxGeometry>
        </mxCell>
        <mxCell id="sFBRQRY5h0tsfyVUQxu8-58" value="&lt;font size=&quot;1&quot;&gt;&lt;b style=&quot;font-size: 18px&quot;&gt;X10&lt;/b&gt;&lt;/font&gt;" style="text;html=1;strokeColor=none;fillColor=none;align=center;verticalAlign=middle;whiteSpace=wrap;rounded=0;" parent="1" vertex="1">
          <mxGeometry x="340.5" y="590" width="40" height="20" as="geometry" />
        </mxCell>
        <mxCell id="sFBRQRY5h0tsfyVUQxu8-59" value="&lt;font size=&quot;1&quot;&gt;&lt;b style=&quot;font-size: 18px&quot;&gt;X11&lt;/b&gt;&lt;/font&gt;" style="text;html=1;strokeColor=none;fillColor=none;align=center;verticalAlign=middle;whiteSpace=wrap;rounded=0;" parent="1" vertex="1">
          <mxGeometry x="340.5" y="750" width="40" height="20" as="geometry" />
        </mxCell>
        <mxCell id="sFBRQRY5h0tsfyVUQxu8-60" value="" style="endArrow=none;html=1;strokeWidth=1;" parent="1" edge="1">
          <mxGeometry width="50" height="50" relative="1" as="geometry">
            <mxPoint x="400.5" y="599.6599999999999" as="sourcePoint" />
            <mxPoint x="450.5" y="599.6599999999999" as="targetPoint" />
          </mxGeometry>
        </mxCell>
        <mxCell id="sFBRQRY5h0tsfyVUQxu8-61" value="&lt;font style=&quot;font-size: 16px&quot;&gt;Chaut&lt;br&gt;&lt;/font&gt;" style="text;html=1;strokeColor=none;fillColor=none;align=left;verticalAlign=middle;whiteSpace=wrap;rounded=0;" parent="1" vertex="1">
          <mxGeometry x="413.5" y="670" width="77" height="20" as="geometry" />
        </mxCell>
        <mxCell id="sFBRQRY5h0tsfyVUQxu8-62" value="&lt;font style=&quot;font-size: 16px&quot;&gt;&lt;br&gt;&lt;/font&gt;" style="text;html=1;strokeColor=none;fillColor=none;align=left;verticalAlign=middle;whiteSpace=wrap;rounded=0;" parent="1" vertex="1">
          <mxGeometry x="413.5" y="990" width="106" height="20" as="geometry" />
        </mxCell>
        <mxCell id="sFBRQRY5h0tsfyVUQxu8-63" value="&lt;font style=&quot;font-size: 16px&quot;&gt;Cmd_Montee&lt;/font&gt;" style="text;html=1;strokeColor=none;fillColor=none;align=left;verticalAlign=middle;whiteSpace=wrap;rounded=0;" parent="1" vertex="1">
          <mxGeometry x="461.5" y="590" width="100" height="20" as="geometry" />
        </mxCell>
        <mxCell id="sFBRQRY5h0tsfyVUQxu8-64" value="" style="whiteSpace=wrap;html=1;aspect=fixed;" parent="1" vertex="1">
          <mxGeometry x="320" y="880" width="80" height="80" as="geometry" />
        </mxCell>
        <mxCell id="sFBRQRY5h0tsfyVUQxu8-65" value="&lt;span style=&quot;font-size: 18px&quot;&gt;&lt;b&gt;X12&lt;/b&gt;&lt;/span&gt;" style="text;html=1;strokeColor=none;fillColor=none;align=center;verticalAlign=middle;whiteSpace=wrap;rounded=0;" parent="1" vertex="1">
          <mxGeometry x="340" y="910" width="40" height="20" as="geometry" />
        </mxCell>
        <mxCell id="sFBRQRY5h0tsfyVUQxu8-66" value="&lt;font style=&quot;font-size: 16px&quot;&gt;Cmd_Avance&lt;/font&gt;" style="text;html=1;strokeColor=none;fillColor=none;align=left;verticalAlign=middle;whiteSpace=wrap;rounded=0;" parent="1" vertex="1">
          <mxGeometry x="448" y="910" width="140" height="20" as="geometry" />
        </mxCell>
        <mxCell id="sFBRQRY5h0tsfyVUQxu8-67" value="" style="endArrow=none;html=1;strokeWidth=1;entryX=0;entryY=0.5;entryDx=0;entryDy=0;exitX=1;exitY=0.5;exitDx=0;exitDy=0;" parent="1" source="sFBRQRY5h0tsfyVUQxu8-64" edge="1">
          <mxGeometry width="50" height="50" relative="1" as="geometry">
            <mxPoint x="400" y="919.5" as="sourcePoint" />
            <mxPoint x="441" y="920" as="targetPoint" />
          </mxGeometry>
        </mxCell>
        <mxCell id="sFBRQRY5h0tsfyVUQxu8-68" value="" style="endArrow=none;html=1;strokeWidth=2;" parent="1" edge="1">
          <mxGeometry width="50" height="50" relative="1" as="geometry">
            <mxPoint x="330" y="1000" as="sourcePoint" />
            <mxPoint x="390" y="1000" as="targetPoint" />
          </mxGeometry>
        </mxCell>
        <mxCell id="sFBRQRY5h0tsfyVUQxu8-69" value="" style="endArrow=none;html=1;entryX=0.5;entryY=1;entryDx=0;entryDy=0;exitX=0.5;exitY=0;exitDx=0;exitDy=0;" parent="1" edge="1">
          <mxGeometry width="50" height="50" relative="1" as="geometry">
            <mxPoint x="360.24999999999955" y="880" as="sourcePoint" />
            <mxPoint x="360.24999999999955" y="800" as="targetPoint" />
            <Array as="points">
              <mxPoint x="359.90999999999997" y="820" />
            </Array>
          </mxGeometry>
        </mxCell>
        <mxCell id="sFBRQRY5h0tsfyVUQxu8-70" value="" style="endArrow=none;html=1;strokeWidth=2;" parent="1" edge="1">
          <mxGeometry width="50" height="50" relative="1" as="geometry">
            <mxPoint x="330" y="840" as="sourcePoint" />
            <mxPoint x="390" y="840" as="targetPoint" />
          </mxGeometry>
        </mxCell>
        <mxCell id="sFBRQRY5h0tsfyVUQxu8-72" value="&lt;span style=&quot;font-size: 16px&quot;&gt;Egouttage&lt;/span&gt;" style="text;html=1;strokeColor=none;fillColor=none;align=left;verticalAlign=middle;whiteSpace=wrap;rounded=0;" parent="1" vertex="1">
          <mxGeometry x="448.5" y="750" width="140" height="20" as="geometry" />
        </mxCell>
        <mxCell id="sFBRQRY5h0tsfyVUQxu8-73" value="" style="endArrow=none;html=1;strokeWidth=1;entryX=0;entryY=0.5;entryDx=0;entryDy=0;exitX=1;exitY=0.5;exitDx=0;exitDy=0;" parent="1" edge="1">
          <mxGeometry width="50" height="50" relative="1" as="geometry">
            <mxPoint x="400.5" y="760" as="sourcePoint" />
            <mxPoint x="441.49999999999955" y="760" as="targetPoint" />
          </mxGeometry>
        </mxCell>
        <mxCell id="sFBRQRY5h0tsfyVUQxu8-74" value="&lt;font style=&quot;font-size: 16px&quot;&gt;%T3s&lt;br&gt;&lt;/font&gt;" style="text;html=1;strokeColor=none;fillColor=none;align=left;verticalAlign=middle;whiteSpace=wrap;rounded=0;" parent="1" vertex="1">
          <mxGeometry x="414.5" y="830" width="77" height="20" as="geometry" />
        </mxCell>
        <mxCell id="sFBRQRY5h0tsfyVUQxu8-75" value="&lt;font style=&quot;font-size: 16px&quot;&gt;DECHARG&lt;br&gt;&lt;/font&gt;" style="text;html=1;strokeColor=none;fillColor=none;align=left;verticalAlign=middle;whiteSpace=wrap;rounded=0;" parent="1" vertex="1">
          <mxGeometry x="420.5" y="990" width="77" height="20" as="geometry" />
        </mxCell>
        <mxCell id="sFBRQRY5h0tsfyVUQxu8-76" value="" style="endArrow=none;html=1;entryX=0.5;entryY=1;entryDx=0;entryDy=0;exitX=0.5;exitY=0;exitDx=0;exitDy=0;" parent="1" edge="1">
          <mxGeometry width="50" height="50" relative="1" as="geometry">
            <mxPoint x="360.6399999999994" y="1040" as="sourcePoint" />
            <mxPoint x="360.6399999999994" y="960" as="targetPoint" />
            <Array as="points">
              <mxPoint x="360.29999999999995" y="980" />
            </Array>
          </mxGeometry>
        </mxCell>
        <mxCell id="sFBRQRY5h0tsfyVUQxu8-77" value="" style="rounded=0;whiteSpace=wrap;html=1;" parent="1" vertex="1">
          <mxGeometry x="440.25" y="1220" width="159" height="40" as="geometry" />
        </mxCell>
        <mxCell id="sFBRQRY5h0tsfyVUQxu8-78" value="" style="whiteSpace=wrap;html=1;aspect=fixed;" parent="1" vertex="1">
          <mxGeometry x="319.2500000000001" y="1040" width="80" height="80" as="geometry" />
        </mxCell>
        <mxCell id="sFBRQRY5h0tsfyVUQxu8-79" value="&lt;font size=&quot;1&quot;&gt;&lt;b style=&quot;font-size: 18px&quot;&gt;X13&lt;/b&gt;&lt;/font&gt;" style="text;html=1;strokeColor=none;fillColor=none;align=center;verticalAlign=middle;whiteSpace=wrap;rounded=0;" parent="1" vertex="1">
          <mxGeometry x="339.25" y="1070" width="40" height="20" as="geometry" />
        </mxCell>
        <mxCell id="sFBRQRY5h0tsfyVUQxu8-80" value="&lt;font style=&quot;font-size: 16px&quot;&gt;&lt;br&gt;&lt;/font&gt;" style="text;html=1;strokeColor=none;fillColor=none;align=left;verticalAlign=middle;whiteSpace=wrap;rounded=0;" parent="1" vertex="1">
          <mxGeometry x="412.25" y="1310" width="106" height="20" as="geometry" />
        </mxCell>
        <mxCell id="sFBRQRY5h0tsfyVUQxu8-81" value="" style="whiteSpace=wrap;html=1;aspect=fixed;" parent="1" vertex="1">
          <mxGeometry x="318.75" y="1200" width="80" height="80" as="geometry" />
        </mxCell>
        <mxCell id="sFBRQRY5h0tsfyVUQxu8-82" value="&lt;span style=&quot;font-size: 18px&quot;&gt;&lt;b&gt;X14&lt;/b&gt;&lt;/span&gt;" style="text;html=1;strokeColor=none;fillColor=none;align=center;verticalAlign=middle;whiteSpace=wrap;rounded=0;" parent="1" vertex="1">
          <mxGeometry x="338.75" y="1230" width="40" height="20" as="geometry" />
        </mxCell>
        <mxCell id="sFBRQRY5h0tsfyVUQxu8-83" value="&lt;font style=&quot;font-size: 16px&quot;&gt;Cmd_Descente&lt;/font&gt;" style="text;html=1;strokeColor=none;fillColor=none;align=left;verticalAlign=middle;whiteSpace=wrap;rounded=0;" parent="1" vertex="1">
          <mxGeometry x="446.75" y="1230" width="140" height="20" as="geometry" />
        </mxCell>
        <mxCell id="sFBRQRY5h0tsfyVUQxu8-84" value="" style="endArrow=none;html=1;strokeWidth=1;entryX=0;entryY=0.5;entryDx=0;entryDy=0;exitX=1;exitY=0.5;exitDx=0;exitDy=0;" parent="1" source="sFBRQRY5h0tsfyVUQxu8-81" edge="1">
          <mxGeometry width="50" height="50" relative="1" as="geometry">
            <mxPoint x="398.75" y="1239.5" as="sourcePoint" />
            <mxPoint x="439.75" y="1240" as="targetPoint" />
          </mxGeometry>
        </mxCell>
        <mxCell id="sFBRQRY5h0tsfyVUQxu8-85" value="" style="endArrow=none;html=1;strokeWidth=2;" parent="1" edge="1">
          <mxGeometry width="50" height="50" relative="1" as="geometry">
            <mxPoint x="328.74999999999955" y="1320" as="sourcePoint" />
            <mxPoint x="388.74999999999955" y="1320" as="targetPoint" />
          </mxGeometry>
        </mxCell>
        <mxCell id="sFBRQRY5h0tsfyVUQxu8-86" value="" style="endArrow=none;html=1;entryX=0.5;entryY=1;entryDx=0;entryDy=0;exitX=0.5;exitY=0;exitDx=0;exitDy=0;" parent="1" edge="1">
          <mxGeometry width="50" height="50" relative="1" as="geometry">
            <mxPoint x="359" y="1200" as="sourcePoint" />
            <mxPoint x="359" y="1120" as="targetPoint" />
            <Array as="points">
              <mxPoint x="358.65999999999997" y="1140" />
            </Array>
          </mxGeometry>
        </mxCell>
        <mxCell id="sFBRQRY5h0tsfyVUQxu8-87" value="" style="endArrow=none;html=1;strokeWidth=2;" parent="1" edge="1">
          <mxGeometry width="50" height="50" relative="1" as="geometry">
            <mxPoint x="328.74999999999955" y="1160" as="sourcePoint" />
            <mxPoint x="388.74999999999955" y="1160" as="targetPoint" />
          </mxGeometry>
        </mxCell>
        <mxCell id="sFBRQRY5h0tsfyVUQxu8-88" value="" style="rounded=0;whiteSpace=wrap;html=1;" parent="1" vertex="1">
          <mxGeometry x="440.75" y="1060" width="159" height="40" as="geometry" />
        </mxCell>
        <mxCell id="sFBRQRY5h0tsfyVUQxu8-89" value="&lt;span style=&quot;font-size: 16px&quot;&gt;Cmd_Descente&lt;/span&gt;" style="text;html=1;strokeColor=none;fillColor=none;align=left;verticalAlign=middle;whiteSpace=wrap;rounded=0;" parent="1" vertex="1">
          <mxGeometry x="448.25" y="1070" width="140" height="20" as="geometry" />
        </mxCell>
        <mxCell id="sFBRQRY5h0tsfyVUQxu8-90" value="" style="endArrow=none;html=1;strokeWidth=1;entryX=0;entryY=0.5;entryDx=0;entryDy=0;exitX=1;exitY=0.5;exitDx=0;exitDy=0;" parent="1" edge="1">
          <mxGeometry width="50" height="50" relative="1" as="geometry">
            <mxPoint x="399.25" y="1080" as="sourcePoint" />
            <mxPoint x="440.25" y="1080" as="targetPoint" />
          </mxGeometry>
        </mxCell>
        <mxCell id="sFBRQRY5h0tsfyVUQxu8-91" value="&lt;font style=&quot;font-size: 16px&quot;&gt;Cbas&lt;br&gt;&lt;/font&gt;" style="text;html=1;strokeColor=none;fillColor=none;align=left;verticalAlign=middle;whiteSpace=wrap;rounded=0;" parent="1" vertex="1">
          <mxGeometry x="413.25" y="1150" width="77" height="20" as="geometry" />
        </mxCell>
        <mxCell id="sFBRQRY5h0tsfyVUQxu8-92" value="&lt;font style=&quot;font-size: 16px&quot;&gt;Chaut&lt;br&gt;&lt;/font&gt;" style="text;html=1;strokeColor=none;fillColor=none;align=left;verticalAlign=middle;whiteSpace=wrap;rounded=0;" parent="1" vertex="1">
          <mxGeometry x="419.25" y="1310" width="77" height="20" as="geometry" />
        </mxCell>
        <mxCell id="sFBRQRY5h0tsfyVUQxu8-93" value="" style="endArrow=none;html=1;entryX=0.5;entryY=1;entryDx=0;entryDy=0;exitX=0.5;exitY=0;exitDx=0;exitDy=0;" parent="1" edge="1">
          <mxGeometry width="50" height="50" relative="1" as="geometry">
            <mxPoint x="359.3899999999999" y="1360" as="sourcePoint" />
            <mxPoint x="359.3899999999999" y="1280" as="targetPoint" />
            <Array as="points">
              <mxPoint x="359.04999999999995" y="1300" />
            </Array>
          </mxGeometry>
        </mxCell>
        <mxCell id="sFBRQRY5h0tsfyVUQxu8-94" value="" style="rounded=0;whiteSpace=wrap;html=1;" parent="1" vertex="1">
          <mxGeometry x="438.75" y="1700" width="159" height="40" as="geometry" />
        </mxCell>
        <mxCell id="sFBRQRY5h0tsfyVUQxu8-95" value="" style="rounded=0;whiteSpace=wrap;html=1;" parent="1" vertex="1">
          <mxGeometry x="448.75" y="1380" width="149" height="40" as="geometry" />
        </mxCell>
        <mxCell id="sFBRQRY5h0tsfyVUQxu8-96" value="" style="whiteSpace=wrap;html=1;aspect=fixed;" parent="1" vertex="1">
          <mxGeometry x="317.7500000000001" y="1360" width="80" height="80" as="geometry" />
        </mxCell>
        <mxCell id="sFBRQRY5h0tsfyVUQxu8-97" value="" style="endArrow=none;html=1;entryX=0.5;entryY=1;entryDx=0;entryDy=0;exitX=0.5;exitY=0;exitDx=0;exitDy=0;" parent="1" source="sFBRQRY5h0tsfyVUQxu8-98" edge="1">
          <mxGeometry width="50" height="50" relative="1" as="geometry">
            <mxPoint x="357.75" y="1480" as="sourcePoint" />
            <mxPoint x="357.75" y="1440" as="targetPoint" />
            <Array as="points">
              <mxPoint x="357.40999999999997" y="1460" />
            </Array>
          </mxGeometry>
        </mxCell>
        <mxCell id="sFBRQRY5h0tsfyVUQxu8-98" value="" style="whiteSpace=wrap;html=1;aspect=fixed;" parent="1" vertex="1">
          <mxGeometry x="317.7500000000001" y="1520" width="80" height="80" as="geometry" />
        </mxCell>
        <mxCell id="sFBRQRY5h0tsfyVUQxu8-99" value="" style="endArrow=none;html=1;strokeWidth=2;" parent="1" edge="1">
          <mxGeometry width="50" height="50" relative="1" as="geometry">
            <mxPoint x="327.75" y="1480" as="sourcePoint" />
            <mxPoint x="387.75" y="1480" as="targetPoint" />
          </mxGeometry>
        </mxCell>
        <mxCell id="sFBRQRY5h0tsfyVUQxu8-100" value="&lt;font size=&quot;1&quot;&gt;&lt;b style=&quot;font-size: 18px&quot;&gt;X15&lt;/b&gt;&lt;/font&gt;" style="text;html=1;strokeColor=none;fillColor=none;align=center;verticalAlign=middle;whiteSpace=wrap;rounded=0;" parent="1" vertex="1">
          <mxGeometry x="337.75" y="1390" width="40" height="20" as="geometry" />
        </mxCell>
        <mxCell id="sFBRQRY5h0tsfyVUQxu8-101" value="&lt;font size=&quot;1&quot;&gt;&lt;b style=&quot;font-size: 18px&quot;&gt;X16&lt;/b&gt;&lt;/font&gt;" style="text;html=1;strokeColor=none;fillColor=none;align=center;verticalAlign=middle;whiteSpace=wrap;rounded=0;" parent="1" vertex="1">
          <mxGeometry x="337.75" y="1550" width="40" height="20" as="geometry" />
        </mxCell>
        <mxCell id="sFBRQRY5h0tsfyVUQxu8-102" value="" style="endArrow=none;html=1;strokeWidth=1;" parent="1" edge="1">
          <mxGeometry width="50" height="50" relative="1" as="geometry">
            <mxPoint x="397.75" y="1399.6599999999999" as="sourcePoint" />
            <mxPoint x="447.75" y="1399.6599999999999" as="targetPoint" />
          </mxGeometry>
        </mxCell>
        <mxCell id="sFBRQRY5h0tsfyVUQxu8-103" value="&lt;font style=&quot;font-size: 16px&quot;&gt;Chaut&lt;br&gt;&lt;/font&gt;" style="text;html=1;strokeColor=none;fillColor=none;align=left;verticalAlign=middle;whiteSpace=wrap;rounded=0;" parent="1" vertex="1">
          <mxGeometry x="410.75" y="1470" width="77" height="20" as="geometry" />
        </mxCell>
        <mxCell id="sFBRQRY5h0tsfyVUQxu8-104" value="&lt;font style=&quot;font-size: 16px&quot;&gt;&lt;br&gt;&lt;/font&gt;" style="text;html=1;strokeColor=none;fillColor=none;align=left;verticalAlign=middle;whiteSpace=wrap;rounded=0;" parent="1" vertex="1">
          <mxGeometry x="296" y="1870" width="106" height="20" as="geometry" />
        </mxCell>
        <mxCell id="sFBRQRY5h0tsfyVUQxu8-105" value="&lt;font style=&quot;font-size: 16px&quot;&gt;Cmd_Montee&lt;/font&gt;" style="text;html=1;strokeColor=none;fillColor=none;align=left;verticalAlign=middle;whiteSpace=wrap;rounded=0;" parent="1" vertex="1">
          <mxGeometry x="458.75" y="1390" width="100" height="20" as="geometry" />
        </mxCell>
        <mxCell id="sFBRQRY5h0tsfyVUQxu8-106" value="" style="whiteSpace=wrap;html=1;aspect=fixed;" parent="1" vertex="1">
          <mxGeometry x="317.25" y="1680" width="80" height="80" as="geometry" />
        </mxCell>
        <mxCell id="sFBRQRY5h0tsfyVUQxu8-107" value="&lt;span style=&quot;font-size: 18px&quot;&gt;&lt;b&gt;X17&lt;/b&gt;&lt;/span&gt;" style="text;html=1;strokeColor=none;fillColor=none;align=center;verticalAlign=middle;whiteSpace=wrap;rounded=0;" parent="1" vertex="1">
          <mxGeometry x="337.25" y="1710" width="40" height="20" as="geometry" />
        </mxCell>
        <mxCell id="sFBRQRY5h0tsfyVUQxu8-108" value="&lt;font style=&quot;font-size: 16px&quot;&gt;Cmd_Descente&lt;/font&gt;" style="text;html=1;strokeColor=none;fillColor=none;align=left;verticalAlign=middle;whiteSpace=wrap;rounded=0;" parent="1" vertex="1">
          <mxGeometry x="445.25" y="1710" width="140" height="20" as="geometry" />
        </mxCell>
        <mxCell id="sFBRQRY5h0tsfyVUQxu8-109" value="" style="endArrow=none;html=1;strokeWidth=1;entryX=0;entryY=0.5;entryDx=0;entryDy=0;exitX=1;exitY=0.5;exitDx=0;exitDy=0;" parent="1" source="sFBRQRY5h0tsfyVUQxu8-106" edge="1">
          <mxGeometry width="50" height="50" relative="1" as="geometry">
            <mxPoint x="397.25" y="1719.5" as="sourcePoint" />
            <mxPoint x="438.25" y="1720" as="targetPoint" />
          </mxGeometry>
        </mxCell>
        <mxCell id="sFBRQRY5h0tsfyVUQxu8-110" value="" style="endArrow=none;html=1;strokeWidth=2;" parent="1" edge="1">
          <mxGeometry width="50" height="50" relative="1" as="geometry">
            <mxPoint x="213.5" y="1880" as="sourcePoint" />
            <mxPoint x="273.5" y="1880" as="targetPoint" />
          </mxGeometry>
        </mxCell>
        <mxCell id="sFBRQRY5h0tsfyVUQxu8-111" value="" style="endArrow=none;html=1;entryX=0.5;entryY=1;entryDx=0;entryDy=0;exitX=0.5;exitY=0;exitDx=0;exitDy=0;" parent="1" edge="1">
          <mxGeometry width="50" height="50" relative="1" as="geometry">
            <mxPoint x="357.49999999999955" y="1680" as="sourcePoint" />
            <mxPoint x="357.49999999999955" y="1600" as="targetPoint" />
            <Array as="points">
              <mxPoint x="357.15999999999997" y="1620" />
            </Array>
          </mxGeometry>
        </mxCell>
        <mxCell id="sFBRQRY5h0tsfyVUQxu8-112" value="" style="endArrow=none;html=1;strokeWidth=2;" parent="1" edge="1">
          <mxGeometry width="50" height="50" relative="1" as="geometry">
            <mxPoint x="327.25" y="1640" as="sourcePoint" />
            <mxPoint x="387.25" y="1640" as="targetPoint" />
          </mxGeometry>
        </mxCell>
        <mxCell id="sFBRQRY5h0tsfyVUQxu8-113" value="" style="rounded=0;whiteSpace=wrap;html=1;" parent="1" vertex="1">
          <mxGeometry x="439.25" y="1540" width="159" height="40" as="geometry" />
        </mxCell>
        <mxCell id="sFBRQRY5h0tsfyVUQxu8-114" value="&lt;span style=&quot;font-size: 16px&quot;&gt;Cmd_Recul&lt;/span&gt;" style="text;html=1;strokeColor=none;fillColor=none;align=left;verticalAlign=middle;whiteSpace=wrap;rounded=0;" parent="1" vertex="1">
          <mxGeometry x="445.75" y="1550" width="140" height="20" as="geometry" />
        </mxCell>
        <mxCell id="sFBRQRY5h0tsfyVUQxu8-115" value="" style="endArrow=none;html=1;strokeWidth=1;entryX=0;entryY=0.5;entryDx=0;entryDy=0;exitX=1;exitY=0.5;exitDx=0;exitDy=0;" parent="1" edge="1">
          <mxGeometry width="50" height="50" relative="1" as="geometry">
            <mxPoint x="397.75" y="1560" as="sourcePoint" />
            <mxPoint x="438.74999999999955" y="1560" as="targetPoint" />
          </mxGeometry>
        </mxCell>
        <mxCell id="sFBRQRY5h0tsfyVUQxu8-116" value="&lt;font style=&quot;font-size: 16px&quot;&gt;Charg&lt;br&gt;&lt;/font&gt;" style="text;html=1;strokeColor=none;fillColor=none;align=left;verticalAlign=middle;whiteSpace=wrap;rounded=0;" parent="1" vertex="1">
          <mxGeometry x="411.75" y="1630" width="77" height="20" as="geometry" />
        </mxCell>
        <mxCell id="sFBRQRY5h0tsfyVUQxu8-117" value="&lt;font style=&quot;font-size: 16px&quot;&gt;Chaut.A2&lt;br&gt;&lt;/font&gt;" style="text;html=1;strokeColor=none;fillColor=none;align=left;verticalAlign=middle;whiteSpace=wrap;rounded=0;" parent="1" vertex="1">
          <mxGeometry x="280" y="1870" width="77" height="20" as="geometry" />
        </mxCell>
        <mxCell id="sFBRQRY5h0tsfyVUQxu8-118" value="" style="endArrow=none;html=1;entryX=0.5;entryY=1;entryDx=0;entryDy=0;exitX=0.5;exitY=0;exitDx=0;exitDy=0;" parent="1" edge="1">
          <mxGeometry width="50" height="50" relative="1" as="geometry">
            <mxPoint x="359.8899999999994" y="1840" as="sourcePoint" />
            <mxPoint x="359.8899999999994" y="1760" as="targetPoint" />
            <Array as="points">
              <mxPoint x="359.54999999999995" y="1780" />
            </Array>
          </mxGeometry>
        </mxCell>
        <mxCell id="sFBRQRY5h0tsfyVUQxu8-122" value="" style="endArrow=none;html=1;" parent="1" edge="1">
          <mxGeometry width="50" height="50" relative="1" as="geometry">
            <mxPoint x="240" y="1840" as="sourcePoint" />
            <mxPoint x="480" y="1840" as="targetPoint" />
          </mxGeometry>
        </mxCell>
        <mxCell id="xObpncWNxKy9B9lzHqdV-3" value="&lt;font style=&quot;font-size: 16px&quot;&gt;&lt;br&gt;&lt;/font&gt;" style="text;html=1;strokeColor=none;fillColor=none;align=left;verticalAlign=middle;whiteSpace=wrap;rounded=0;" vertex="1" parent="1">
          <mxGeometry x="533.5" y="1870" width="106" height="20" as="geometry" />
        </mxCell>
        <mxCell id="xObpncWNxKy9B9lzHqdV-4" value="" style="endArrow=none;html=1;strokeWidth=2;" edge="1" parent="1">
          <mxGeometry width="50" height="50" relative="1" as="geometry">
            <mxPoint x="450.0000000000001" y="1880" as="sourcePoint" />
            <mxPoint x="510.0000000000001" y="1880" as="targetPoint" />
          </mxGeometry>
        </mxCell>
        <mxCell id="xObpncWNxKy9B9lzHqdV-5" value="&lt;font style=&quot;font-size: 16px&quot;&gt;Chaut.F1&lt;br&gt;&lt;/font&gt;" style="text;html=1;strokeColor=none;fillColor=none;align=left;verticalAlign=middle;whiteSpace=wrap;rounded=0;" vertex="1" parent="1">
          <mxGeometry x="525" y="1870" width="77" height="20" as="geometry" />
        </mxCell>
        <mxCell id="xObpncWNxKy9B9lzHqdV-13" value="" style="endArrow=none;html=1;" edge="1" parent="1">
          <mxGeometry width="50" height="50" relative="1" as="geometry">
            <mxPoint x="200" y="1920" as="sourcePoint" />
            <mxPoint x="240" y="1920" as="targetPoint" />
          </mxGeometry>
        </mxCell>
        <mxCell id="xObpncWNxKy9B9lzHqdV-14" value="" style="endArrow=none;html=1;" edge="1" parent="1">
          <mxGeometry width="50" height="50" relative="1" as="geometry">
            <mxPoint x="241" y="1920" as="sourcePoint" />
            <mxPoint x="241" y="1840" as="targetPoint" />
          </mxGeometry>
        </mxCell>
        <mxCell id="xObpncWNxKy9B9lzHqdV-18" value="" style="endArrow=none;html=1;" edge="1" parent="1">
          <mxGeometry width="50" height="50" relative="1" as="geometry">
            <mxPoint x="480" y="1920" as="sourcePoint" />
            <mxPoint x="480" y="1840" as="targetPoint" />
          </mxGeometry>
        </mxCell>
        <mxCell id="xObpncWNxKy9B9lzHqdV-20" value="" style="endArrow=none;html=1;" edge="1" parent="1">
          <mxGeometry width="50" height="50" relative="1" as="geometry">
            <mxPoint x="481" y="1920" as="sourcePoint" />
            <mxPoint x="640" y="1920" as="targetPoint" />
          </mxGeometry>
        </mxCell>
        <mxCell id="xObpncWNxKy9B9lzHqdV-21" value="" style="endArrow=none;html=1;" edge="1" parent="1">
          <mxGeometry width="50" height="50" relative="1" as="geometry">
            <mxPoint x="640" y="1920" as="sourcePoint" />
            <mxPoint x="640" y="-900" as="targetPoint" />
          </mxGeometry>
        </mxCell>
        <mxCell id="xObpncWNxKy9B9lzHqdV-22" value="" style="endArrow=none;html=1;" edge="1" parent="1">
          <mxGeometry width="50" height="50" relative="1" as="geometry">
            <mxPoint x="360" y="-900" as="sourcePoint" />
            <mxPoint x="640" y="-900" as="targetPoint" />
          </mxGeometry>
        </mxCell>
        <mxCell id="xObpncWNxKy9B9lzHqdV-23" value="" style="endArrow=none;html=1;" edge="1" parent="1">
          <mxGeometry width="50" height="50" relative="1" as="geometry">
            <mxPoint x="360" y="-900" as="sourcePoint" />
            <mxPoint x="380" y="-910" as="targetPoint" />
          </mxGeometry>
        </mxCell>
        <mxCell id="xObpncWNxKy9B9lzHqdV-24" value="" style="endArrow=none;html=1;" edge="1" parent="1">
          <mxGeometry width="50" height="50" relative="1" as="geometry">
            <mxPoint x="360" y="-900" as="sourcePoint" />
            <mxPoint x="380" y="-890" as="targetPoint" />
          </mxGeometry>
        </mxCell>
        <mxCell id="xObpncWNxKy9B9lzHqdV-25" value="" style="endArrow=none;html=1;strokeWidth=4;" edge="1" parent="1">
          <mxGeometry width="50" height="50" relative="1" as="geometry">
            <mxPoint x="620" y="-330" as="sourcePoint" />
            <mxPoint x="640" y="-370" as="targetPoint" />
          </mxGeometry>
        </mxCell>
        <mxCell id="xObpncWNxKy9B9lzHqdV-26" value="" style="endArrow=none;html=1;strokeWidth=4;" edge="1" parent="1">
          <mxGeometry width="50" height="50" relative="1" as="geometry">
            <mxPoint x="660" y="-330" as="sourcePoint" />
            <mxPoint x="640" y="-370" as="targetPoint" />
          </mxGeometry>
        </mxCell>
        <mxCell id="xObpncWNxKy9B9lzHqdV-27" value="Text" style="text;html=1;align=center;verticalAlign=middle;resizable=0;points=[];autosize=1;" vertex="1" parent="1">
          <mxGeometry x="1186" y="-1031" width="40" height="20" as="geometry" />
        </mxCell>
      </root>
    </mxGraphModel>
  </diagram>
</mxfile>
